HIERARCHY
ROOT Hips
{
    OFFSET 0.000000 0.000000 0.000000
    CHANNELS 6 Xposition Yposition Zposition Zrotation Xrotation Yrotation
    JOINT Spine
    {
        OFFSET -0.000000 14.517291 0.000000
        CHANNELS 3 Zrotation Xrotation Yrotation
        JOINT Spine1
        {
            OFFSET -0.000000 37.558300 0.000000
            CHANNELS 3 Zrotation Xrotation Yrotation
            JOINT Neck
            {
                OFFSET -0.000000 37.404057 3.400369
                CHANNELS 3 Zrotation Xrotation Yrotation
                JOINT Head
                {
                    OFFSET -0.000000 24.785618 -3.540803
                    CHANNELS 3 Zrotation Xrotation Yrotation
                    End Site
                    {
                        OFFSET -0.000000 35.408028 0.000000
                    }
                }
            }
            JOINT LeftShoulder
            {
                OFFSET 6.992933 33.973492 -0.192664
                CHANNELS 3 Zrotation Xrotation Yrotation
                JOINT LeftArm
                {
                    OFFSET 21.527611 0.000000 0.000000
                    CHANNELS 3 Zrotation Xrotation Yrotation
                    JOINT LeftForeArm
                    {
                        OFFSET 56.353916 0.000000 0.000000
                        CHANNELS 3 Zrotation Xrotation Yrotation
                        JOINT LeftHand
                        {
                            OFFSET 47.774071 0.000000 0.000000
                            CHANNELS 3 Zrotation Xrotation Yrotation
                            End Site
                            {
                                OFFSET 26.556021 0.000000 0.000000
                            }
                        }
                    }
                }
            }
            JOINT RightShoulder
            {
                OFFSET -7.065357 33.973492 -0.192664
                CHANNELS 3 Zrotation Xrotation Yrotation
                JOINT RightArm
                {
                    OFFSET -21.527611 0.000000 0.000000
                    CHANNELS 3 Zrotation Xrotation Yrotation
                    JOINT RightForeArm
                    {
                        OFFSET -56.353916 0.000000 0.000000
                        CHANNELS 3 Zrotation Xrotation Yrotation
                        JOINT RightHand
                        {
                            OFFSET -47.774071 0.000000 0.000000
                            CHANNELS 3 Zrotation Xrotation Yrotation
                            End Site
                            {
                                OFFSET -26.556021 0.000000 0.000000
                            }
                        }
                    }
                }
            }
        }
    }
    JOINT LeftUpLeg
    {
        OFFSET 17.704014 0.000000 0.000000
        CHANNELS 3 Zrotation Xrotation Yrotation
        JOINT LeftLeg
        {
            OFFSET -0.000000 -81.181816 0.000000
            CHANNELS 3 Zrotation Xrotation Yrotation
            JOINT LeftFoot
            {
                OFFSET -0.000000 -62.821102 0.000000
                CHANNELS 3 Zrotation Xrotation Yrotation
                JOINT LeftToeBase
                {
                    OFFSET -0.000000 -11.507608 26.556021
                    CHANNELS 3 Zrotation Xrotation Yrotation
                    End Site
                    {
                        OFFSET -0.000000 0.000000 7.081605
                    }
                }
            }
        }
    }
    JOINT RightUpLeg
    {
        OFFSET -17.704014 0.000000 0.000000
        CHANNELS 3 Zrotation Xrotation Yrotation
        JOINT RightLeg
        {
            OFFSET -0.000000 -81.181816 0.000000
            CHANNELS 3 Zrotation Xrotation Yrotation
            JOINT RightFoot
            {
                OFFSET -0.000000 -62.821102 0.000000
                CHANNELS 3 Zrotation Xrotation Yrotation
                JOINT RightToeBase
                {
                    OFFSET -0.000000 -11.507608 26.556021
                    CHANNELS 3 Zrotation Xrotation Yrotation
                    End Site
                    {
                        OFFSET -0.000000 0.000000 7.081605
                    }
                }
            }
        }
    }
}
MOTION
Frames:    7
Frame Time:    0.008333
-0.757849    157.017441    -22.480871    -1.927951    -3.188007    -39.012184    2.943868    -0.218858    1.423561    -0.489615    1.547009    0.478207    15.070587    4.402483    15.430566    -8.652677    1.613614    13.318463    -0.977272    9.413037    -9.507554    -42.147675    10.632010    -35.211403    46.181255    -47.950989    -38.514393    -21.117382    -30.820885    -27.169743    -0.073787    9.219226    -5.765475    42.577843    11.057392    62.332455    -33.210171    -39.917221    32.968384    26.399122    -25.883043    27.780918    17.408489    -14.835990    6.378049    -13.558314    23.075191    0.217696    -5.210388    -3.570373    32.686317    0.000000    0.000000    0.000000    -12.206348    1.634587    -4.972081    5.757075    27.177443    0.383744    4.161179    -21.583570    -12.704714    0.000000    0.000000    0.000000    
-0.756226    157.006805    -22.479845    -1.925795    -3.185131    -38.990326    2.951946    -0.227385    1.420068    -0.500692    1.553934    0.477132    15.094242    4.402592    15.428271    -8.678658    1.636441    13.311892    -0.963226    9.419767    -9.508239    -42.158676    10.608015    -35.243252    46.192192    -47.922638    -38.504230    -21.098021    -30.791395    -27.155642    -0.062693    9.212923    -5.779358    42.579300    11.063803    62.321060    -33.201145    -39.936081    32.982090    26.413406    -25.904816    27.761198    17.413088    -14.856611    6.390803    -13.563712    23.101284    0.188500    -5.201811    -3.582578    32.681496    0.000000    0.000000    0.000000    -12.206559    1.619071    -4.978693    5.759442    27.217140    0.379323    4.163213    -21.597118    -12.720796    0.000000    0.000000    0.000000    
-0.755568    156.998032    -22.471821    -1.925671    -3.195131    -38.969505    2.956239    -0.228569    1.410166    -0.510734    1.562238    0.473979    15.082000    4.413003    15.427110    -8.654860    1.643514    13.316992    -0.960059    9.431087    -9.501207    -42.155903    10.594580    -35.269802    46.192329    -47.925369    -38.503521    -21.078487    -30.802059    -27.139750    -0.061441    9.202387    -5.779452    42.588631    11.070372    62.300812    -33.204082    -39.938457    32.987034    26.427620    -25.904318    27.750725    17.406128    -14.864325    6.401412    -13.568050    23.128050    0.186347    -5.189505    -3.591352    32.661827    0.000000    0.000000    0.000000    -12.216760    1.616939    -4.973392    5.771093    27.255913    0.404086    4.136218    -21.610287    -12.759515    0.000000    0.000000    0.000000    
-0.753243    156.990311    -22.468651    -1.916089    -3.199756    -38.953529    2.946196    -0.233874    1.409652    -0.505413    1.566428    0.473710    15.090484    4.420296    15.421576    -8.673142    1.655830    13.309916    -0.961516    9.424135    -9.507387    -42.167702    10.570378    -35.274132    46.157143    -47.913250    -38.539845    -21.058207    -30.791138    -27.123613    -0.060087    9.194112    -5.786421    42.610447    11.059082    62.275185    -33.168594    -39.934792    33.033699    26.402391    -25.910019    27.717705    17.395496    -14.881717    6.421569    -13.558414    23.154371    0.151919    -5.196467    -3.602894    32.661221    0.000000    0.000000    0.000000    -12.230869    1.600871    -4.952222    5.793591    27.296705    0.401410    4.134982    -21.633366    -12.806425    0.000000    0.000000    0.000000    
-0.752133    156.978989    -22.465410    -1.910578    -3.204507    -38.937557    2.944672    -0.239814    1.404472    -0.505447    1.575228    0.471959    15.091366    4.429480    15.426233    -8.675041    1.664666    13.316380    -0.961132    9.426129    -9.509778    -42.177757    10.542568    -35.276909    46.115009    -47.916977    -38.584866    -21.036589    -30.798025    -27.117195    -0.059665    9.203834    -5.797505    42.601532    11.070595    62.285694    -33.198483    -39.949902    33.021904    26.412354    -25.920189    27.717365    17.390879    -14.896319    6.427678    -13.569987    23.175426    0.138930    -5.189912    -3.616233    32.676109    0.000000    0.000000    0.000000    -12.243741    1.589641    -4.924057    5.822976    27.334534    0.383273    4.122088    -21.664249    -12.838448    0.000000    0.000000    0.000000    
-0.750857    156.971527    -22.460396    -1.905381    -3.215821    -38.923199    2.932674    -0.234509    1.405961    -0.495520    1.579246    0.472429    15.091984    4.440373    15.425181    -8.681953    1.666283    13.315959    -0.960212    9.424870    -9.512919    -42.179771    10.560412    -35.287052    46.140732    -47.924370    -38.573143    -21.012335    -30.812292    -27.093723    -0.055359    9.200139    -5.818311    42.604332    11.075933    62.280296    -33.204933    -39.950504    33.038387    26.422758    -25.915487    27.700739    17.381941    -14.903294    6.421675    -13.582676    23.195513    0.126651    -5.176612    -3.617230    32.676464    0.000000    0.000000    0.000000    -12.262810    1.592822    -4.907156    5.853615    27.353371    0.375631    4.054043    -21.683313    -12.861335    0.000000    0.000000    0.000000    
-0.750460    156.962830    -22.459749    -1.900871    -3.222435    -38.904915    2.915988    -0.234735    1.399184    -0.468677    1.586861    0.469783    15.070194    4.437100    15.426581    -8.665145    1.685772    13.322969    -0.970283    9.426170    -9.512162    -42.185604    10.549401    -35.286251    46.118587    -47.919445    -38.602711    -21.007113    -30.803236    -27.090797    -0.059534    9.203578    -5.821857    42.618858    11.056889    62.277088    -33.197029    -39.937630    33.060406    26.388916    -25.908434    27.681633    17.376312    -14.918357    6.411841    -13.590431    23.218296    0.132436    -5.169826    -3.621731    32.666695    0.000000    0.000000    0.000000    -12.270557    1.591197    -4.929890    5.851712    27.378803    0.378907    4.066752    -21.700989    -12.867060    0.000000    0.000000    0.000000    
